<svg width="94" height="94" viewBox="0 0 94 94" fill="none" xmlns="http://www.w3.org/2000/svg">
<path d="M54.3438 8.8125C45.8264 8.8125 38.936 15.0117 37.324 23.0783C36.3982 23.3746 35.5055 23.7448 34.6505 24.177L29.375 11.75L26.4375 10.2812C26.4375 10.2812 22.0312 19.0938 16.1562 27.9062L22.0312 29.375L11.75 42.5938L19.0938 44.0625L8.8125 57.2813L16.1562 58.75L4.40625 71.9688C4.40625 71.9688 14.6875 73.4375 24.9688 73.4375V85.1875H32.3125V73.4375H48.5032C49.1276 73.481 49.747 73.4825 50.3994 73.4719L49.9375 85.1875H58.75L57.2755 47.8405L71.7507 35.9987L70.282 33.0612L57.0259 41.4979L56.5469 29.375H52.1406L51.3173 50.233L40.8152 44.5043L39.2804 47.2869L51.062 56.7104L50.6317 67.5883C49.7192 67.5859 48.5945 67.5602 48.7613 67.5769C42.0663 66.9073 38.6784 64.5025 36.5897 61.3806C34.5009 58.2587 33.7812 54.0765 33.7812 49.9375C33.7812 49.5923 33.8051 49.2119 33.8415 48.7872L33.939 47.6569L33.2505 46.7562C31.7394 44.7727 30.8437 42.3366 30.8437 39.6563C30.8437 33.9248 34.9083 29.2051 40.2902 28.1357L42.4675 27.7026L42.6454 25.488C43.1294 19.4276 48.1414 14.6875 54.3438 14.6875C59.2852 14.6875 63.4675 17.716 65.2188 21.9968L65.8212 23.4713L67.3875 23.7697C74.1741 25.0614 79.3125 30.99 79.3125 38.1875C79.3125 39.4072 78.4622 41.7485 77.468 43.572C76.4737 45.3955 75.4943 46.7074 75.4943 46.7074L74.7599 47.6856L74.9378 48.8962C75.5361 52.9658 74.7556 56.5478 72.8896 59.0254C71.0236 61.503 68.0631 63.1563 63.1563 63.1563V69.0313C69.5015 69.0313 74.5739 66.5544 77.5827 62.5596C80.3285 58.9139 81.1548 54.206 80.721 49.3953C81.0909 48.8803 81.6793 48.1192 82.6258 46.3832C83.8346 44.1662 85.1875 41.3682 85.1875 38.1875C85.1875 28.7271 78.6673 20.9191 69.9263 18.5458C67.012 12.8165 61.1837 8.81251 54.3438 8.81251V8.8125Z" fill="#F1C40F"/>
</svg>
